<!DOCTYPE svg PUBLIC "-//W3C//DTD SVG 1.1//EN" "http://www.w3.org/Graphics/SVG/1.1/DTD/svg11.dtd">
<!-- Uploaded to: SVG Repo, www.svgrepo.com, Transformed by: SVG Repo Mixer Tools -->
<svg fill="#64ccc5" width="800px" height="800px" viewBox="-1 0 19 19" xmlns="http://www.w3.org/2000/svg" class="cf-icon-svg">
<g id="SVGRepo_bgCarrier" stroke-width="0"/>
<g id="SVGRepo_tracerCarrier" stroke-linecap="round" stroke-linejoin="round"/>
<g id="SVGRepo_iconCarrier">
<path d="M16.417 9.579A7.917 7.917 0 1 1 8.5 1.662a7.917 7.917 0 0 1 7.917 7.917zm-3.705-4.104a.366.366 0 0 0-.335-.334s-4.448-.26-6.438 1.73c-1.747 1.746-1.85 3.588-.908 4.954L8.245 8.61a.396.396 0 1 1 .56.56l-4.431 4.431a.396.396 0 0 0 .56.56l1.243-1.243c1.35.835 3.12.678 4.805-1.005 1.99-1.991 1.73-6.439 1.73-6.439z"/>
</g>
</svg>