<svg width="50" height="50" viewBox="0 0 50 50" fill="none" xmlns="http://www.w3.org/2000/svg">
<g clip-path="url(#clip0_5_63)">
<path d="M25.0586 20.4313C24.121 20.4574 23.2052 20.5719 22.3186 20.7655C18.6476 21.8207 15.954 25.209 15.954 29.2149C15.954 34.0616 19.8972 38.0047 24.7439 38.0047C29.5906 38.0047 33.5337 34.0615 33.5337 29.2149C33.5338 24.4736 29.7602 20.5976 25.0586 20.4313Z" fill="white"/>
<path d="M42.4233 7.32295C37.7009 2.60068 31.4223 0 24.7439 0C18.0656 0 11.787 2.60068 7.06474 7.32295C3.56015 10.8274 1.22549 15.1895 0.253708 19.9355C3.53965 13.97 9.88906 9.91875 17.1676 9.91875C27.7065 9.91875 36.2978 18.4118 36.46 28.9129C36.4625 29.0133 36.4638 29.114 36.4638 29.2149C36.4638 35.6772 31.2062 40.9348 24.7439 40.9348C18.2816 40.9348 13.0241 35.6772 13.0241 29.2148C13.0241 28.4208 13.1039 27.6451 13.2551 26.8949C11.6352 29.2669 10.6866 32.1319 10.6866 35.2147C10.6866 43.2507 17.1288 49.81 25.1198 50C31.6574 49.9042 37.7896 47.3151 42.4231 42.6815C47.1455 37.9593 49.7463 31.6807 49.7463 25.0022C49.7463 18.3238 47.1455 12.0453 42.4233 7.32295Z" fill="white"/>
<path d="M29.5526 18.5275C26.5492 15.0519 22.1109 12.8486 17.1676 12.8486C8.14326 12.8486 0.801369 20.1905 0.801369 29.2148C0.801369 31.499 1.26885 33.7231 2.16895 35.7766C3.37871 38.3066 5.02295 40.6398 7.06475 42.6814C8.47832 44.095 10.0322 45.3169 11.6937 46.3373C9.23301 43.2942 7.75674 39.4239 7.75674 35.2146C7.75674 26.7712 13.6933 19.6893 21.6113 17.9208C22.6089 17.6437 23.6594 17.495 24.7439 17.495C24.8558 17.495 24.9671 17.497 25.0781 17.5001C25.2105 17.4972 25.3433 17.495 25.4764 17.495V17.5186C26.9209 17.6082 28.2956 17.9597 29.5526 18.5275Z" fill="white"/>
</g>
<defs>
<clipPath id="clip0_5_63">
<rect width="50" height="50" fill="white"/>
</clipPath>
</defs>
</svg>
