<svg width="344" height="216" viewBox="0 0 344 216" fill="none" xmlns="http://www.w3.org/2000/svg">
<path fill-rule="evenodd" clip-rule="evenodd" d="M33.3636 215.974H237.012C245.861 215.949 254.34 212.163 260.589 205.448C266.838 198.732 270.347 189.634 270.347 180.149V128.771H335.843L324.129 139.695L326.749 142.478L343.528 126.84L326.749 111.201L324.129 113.985L335.866 124.93H268.599C268.363 124.93 268.129 124.98 267.912 125.077C267.694 125.175 267.497 125.318 267.331 125.499C267.166 125.679 267.036 125.893 266.948 126.127C266.86 126.362 266.817 126.613 266.821 126.866V180.149C266.84 184.36 266.084 188.533 264.595 192.429C263.105 196.326 260.913 199.868 258.144 202.854C255.374 205.84 252.082 208.211 248.456 209.83C244.829 211.449 240.941 212.284 237.012 212.288H33.3636C25.4602 212.28 17.8827 208.911 12.2942 202.921C6.70565 196.93 3.56263 188.808 3.55491 180.337V36.6653C3.56263 28.1938 6.70565 20.0717 12.2942 14.0814C17.8827 8.0912 25.4602 4.72226 33.3636 4.71399H77.5667C78.0381 4.71399 78.4902 4.51326 78.8235 4.15596C79.1568 3.79867 79.3441 3.31407 79.3441 2.80878C79.3441 2.30348 79.1568 1.81888 78.8235 1.46159C78.4902 1.10429 78.0381 0.903564 77.5667 0.903564H33.3636C24.5476 0.911634 16.0922 4.65627 9.842 11.3207C3.59177 17.985 0.0538596 27.0283 1.27254e-05 36.4779V180.149C-0.00381546 184.85 0.856124 189.505 2.53073 193.849C4.20533 198.193 6.66181 202.141 9.7599 205.468C12.858 208.795 16.537 211.434 20.587 213.237C24.6369 215.04 28.9784 215.969 33.3636 215.974Z" fill="#F4F4F4"/>
</svg>
