<svg width="84" height="83" viewBox="0 0 84 83" fill="none" xmlns="http://www.w3.org/2000/svg">
<path d="M42.2822 79.7499C63.9686 79.7499 81.5488 62.1198 81.5488 40.372C81.5488 18.6242 63.9686 0.994141 42.2822 0.994141C20.5959 0.994141 3.01562 18.6242 3.01562 40.372C3.01562 62.1198 20.5959 79.7499 42.2822 79.7499Z" fill="#0C0C0C" fill-opacity="0.9"/>
<path d="M42.8996 36.7155L36.3018 43.3133L33.4153 40.4268M50.3221 39.1897L43.7243 45.7875L42.0749 44.138M56.7056 40.8391C56.7056 49.0378 50.0593 55.6841 41.8606 55.6841C33.662 55.6841 27.0156 49.0378 27.0156 40.8391C27.0156 32.6405 33.662 25.9941 41.8606 25.9941C50.0593 25.9941 56.7056 32.6405 56.7056 40.8391Z" stroke="#FBFBFB" stroke-width="1.7936" stroke-linecap="round" stroke-linejoin="round"/>
<path d="M42.131 82.625C33.9823 82.625 26.0167 80.2018 19.2413 75.6618C12.466 71.1218 7.18526 64.669 4.0669 57.1193C0.948549 49.5696 0.1326 41.2621 1.72232 33.2474C3.31205 25.2326 7.236 17.8707 12.998 12.0924C18.7599 6.31406 26.1011 2.37899 34.0932 0.78476C42.0853 -0.809468 50.3692 0.00874518 57.8976 3.13594C65.426 6.26313 71.8606 11.5589 76.3877 18.3534C80.9149 25.148 83.3312 33.1362 83.3312 41.3079C83.3147 52.2608 78.9688 62.7604 71.2458 70.5052C63.5228 78.2501 53.0529 82.6085 42.131 82.625ZM42.131 3.83795C34.7287 3.83795 27.4927 6.03921 21.338 10.1633C15.1832 14.2875 10.3862 20.1492 7.55346 27.0074C4.72074 33.8656 3.97959 41.4121 5.4237 48.6927C6.86781 55.9733 10.4323 62.661 15.6664 67.91C20.9006 73.159 27.5694 76.7336 34.8294 78.1818C42.0894 79.63 49.6146 78.8868 56.4534 76.046C63.2922 73.2053 69.1375 68.3946 73.2499 62.2225C77.3624 56.0503 79.5574 48.7937 79.5574 41.3705C79.5574 36.4416 78.5893 31.5611 76.7085 27.0074C74.8276 22.4537 72.0709 18.3162 68.5955 14.831C65.1201 11.3457 60.9942 8.58113 56.4534 6.69494C51.9127 4.80875 47.0459 3.83795 42.131 3.83795Z" fill="white"/>
</svg>
