<svg width="34" height="35" viewBox="0 0 34 35" fill="none" xmlns="http://www.w3.org/2000/svg">
<path d="M15.3919 6.43243L8.62929 8.21207C7.83414 8.42132 7.43656 8.52594 7.13458 8.77003C7.03533 8.85025 6.94484 8.94074 6.86462 9.03999C6.62053 9.34197 6.51591 9.73954 6.30666 10.5347L2.48853 25.0436C1.51297 28.7507 1.02518 30.6043 1.79096 31.7812C2.03212 32.1518 2.34818 32.4679 2.7188 32.709C3.8957 33.4748 5.74927 32.987 9.45641 32.0115L23.9653 28.1933C24.7605 27.9841 25.158 27.8795 25.46 27.6354C25.5593 27.5552 25.6497 27.4647 25.73 27.3654C25.9741 27.0634 26.0787 26.6659 26.2879 25.8707L28.0676 19.1081M15.3919 6.43243L28.0676 19.1081M15.3919 6.43243L18.5195 3.30479C19.4798 2.34453 19.9599 1.8644 20.5411 1.77236C20.7287 1.74263 20.9199 1.74263 21.1076 1.77236C21.6887 1.8644 22.1689 2.34453 23.1291 3.30479L31.1952 11.3709C32.1555 12.3311 32.6356 12.8113 32.7276 13.3924C32.7574 13.5801 32.7574 13.7713 32.7276 13.9589C32.6356 14.5401 32.1555 15.0202 31.1952 15.9805L28.0676 19.1081" stroke="#FBFBFB" stroke-width="1.7633" stroke-linecap="round" stroke-linejoin="round"/>
<path d="M12.9018 21.6063C11.5892 20.2937 11.5892 18.1655 12.9018 16.8529C14.2144 15.5403 16.3426 15.5403 17.6552 16.8529C18.9678 18.1655 18.9678 20.2937 17.6552 21.6063C16.3426 22.9189 14.2144 22.9189 12.9018 21.6063ZM12.9018 21.6063L8.14844 26.3597" stroke="#FBFBFB" stroke-width="2.71622" stroke-linecap="round" stroke-linejoin="round"/>
</svg>
