<svg width="50" height="50" viewBox="0 0 50 50" fill="none" xmlns="http://www.w3.org/2000/svg">
<circle cx="25" cy="25" r="25" fill="#FBFBFB"/>
<path d="M24.1555 23.521V31.1377V27.8847C24.1555 25.4747 26.1092 23.521 28.5192 23.521V23.521C29.9652 23.521 31.1374 24.6932 31.1374 26.1392V31.1377M19.7124 23.521V31.1377" stroke="#0C0C0C" stroke-width="1.375" stroke-linecap="round" stroke-linejoin="round"/>
<path d="M20.9822 19.7128C20.9822 20.4139 20.4139 20.9822 19.7128 20.9822C19.0117 20.9822 18.4434 20.4139 18.4434 19.7128C18.4434 19.0117 19.0117 18.4434 19.7128 18.4434C20.4139 18.4434 20.9822 19.0117 20.9822 19.7128Z" fill="#0C0C0C"/>
<path d="M14 20.6C14 17.8502 14 16.4753 14.7003 15.5115C14.9264 15.2002 15.2002 14.9264 15.5115 14.7003C16.4753 14 17.8502 14 20.6 14H30.25C32.9998 14 34.3747 14 35.3385 14.7003C35.6498 14.9264 35.9236 15.2002 36.1497 15.5115C36.85 16.4753 36.85 17.8502 36.85 20.6V30.25C36.85 32.9998 36.85 34.3747 36.1497 35.3385C35.9236 35.6498 35.6498 35.9236 35.3385 36.1497C34.3747 36.85 32.9998 36.85 30.25 36.85H20.6C17.8502 36.85 16.4753 36.85 15.5115 36.1497C15.2002 35.9236 14.9264 35.6498 14.7003 35.3385C14 34.3747 14 32.9998 14 30.25V20.6Z" stroke="#0C0C0C" stroke-width="1.375" stroke-linejoin="round"/>
</svg>
