<svg width="50" height="50" viewBox="0 0 50 50" fill="none" xmlns="http://www.w3.org/2000/svg">
<circle cx="25" cy="25" r="25" fill="#FBFBFB"/>
<path d="M33.0419 18.4428C33.0419 18.7933 32.7577 19.0775 32.4071 19.0775C32.0566 19.0775 31.7724 18.7933 31.7724 18.4428C31.7724 18.0922 32.0566 17.8081 32.4071 17.8081C32.7577 17.8081 33.0419 18.0922 33.0419 18.4428Z" fill="#292556" stroke="#0C0C0C" stroke-width="1.26944"/>
<path d="M14 23.14C14 19.3319 14 17.4279 14.9698 16.0931C15.283 15.6621 15.6621 15.283 16.0931 14.9698C17.4279 14 19.3319 14 23.14 14H27.71C31.5181 14 33.4221 14 34.7569 14.9698C35.1879 15.283 35.567 15.6621 35.8802 16.0931C36.85 17.4279 36.85 19.3319 36.85 23.14V27.71C36.85 31.5181 36.85 33.4221 35.8802 34.7569C35.567 35.1879 35.1879 35.567 34.7569 35.8802C33.4221 36.85 31.5181 36.85 27.71 36.85H23.14C19.3319 36.85 17.4279 36.85 16.0931 35.8802C15.6621 35.567 15.283 35.1879 14.9698 34.7569C14 33.4221 14 31.5181 14 27.71V23.14Z" stroke="#0C0C0C" stroke-width="1.90417" stroke-linejoin="round"/>
<path d="M30.5028 25.425C30.5028 28.2294 28.2294 30.5028 25.425 30.5028C22.6206 30.5028 20.3472 28.2294 20.3472 25.425C20.3472 22.6206 22.6206 20.3472 25.425 20.3472C28.2294 20.3472 30.5028 22.6206 30.5028 25.425Z" stroke="#0C0C0C" stroke-width="1.90417" stroke-linejoin="round"/>
</svg>
